<svg width="13" height="13" viewBox="0 0 13 13" fill="none" xmlns="http://www.w3.org/2000/svg">
<path d="M11.21 8.62147V10.1501C11.2105 10.292 11.1815 10.4325 11.1246 10.5625C11.0678 10.6925 10.9844 10.8092 10.8798 10.9052C10.7752 11.0011 10.6518 11.0741 10.5174 11.1196C10.3829 11.1651 10.2405 11.182 10.0992 11.1692C8.5312 10.9988 7.02508 10.463 5.7018 9.60489C4.47066 8.82257 3.42686 7.77877 2.64454 6.54763C1.7834 5.21834 1.2475 3.70489 1.08025 2.1299C1.06751 1.98899 1.08426 1.84698 1.12942 1.7129C1.17458 1.57882 1.24716 1.45561 1.34254 1.35112C1.43793 1.24663 1.55402 1.16314 1.68344 1.10598C1.81286 1.04882 1.95276 1.01923 2.09424 1.01909H3.62286C3.87015 1.01666 4.10988 1.10423 4.29738 1.26547C4.48487 1.42672 4.60734 1.65064 4.64195 1.89551C4.70647 2.3847 4.82612 2.86503 4.99863 3.32732C5.06719 3.5097 5.08202 3.70791 5.04138 3.89846C5.00075 4.08901 4.90633 4.26392 4.76934 4.40246L4.12222 5.04957C4.84758 6.32524 5.90381 7.38147 7.17947 8.10683L7.82659 7.45971C7.96513 7.32272 8.14004 7.2283 8.33059 7.18766C8.52114 7.14703 8.71935 7.16186 8.90173 7.23042C9.36402 7.40292 9.84435 7.52258 10.3335 7.5871C10.5811 7.62202 10.8071 7.74669 10.9687 7.93741C11.1303 8.12812 11.2162 8.37158 11.21 8.62147Z" stroke="#6F7173" stroke-width="1.0253" stroke-linecap="round" stroke-linejoin="round"/>
</svg>
