<svg width="13" height="13" viewBox="0 0 13 13" fill="none" xmlns="http://www.w3.org/2000/svg">
<g clip-path="url(#clip0_172:57)">
<path d="M8.1527 11.9809V10.009C8.17182 9.766 8.13899 9.52174 8.05641 9.29244C7.97382 9.06314 7.84337 8.85405 7.67373 8.67906C9.2737 8.50072 10.9552 7.89436 10.9552 5.11226C10.9551 4.40085 10.6814 3.71672 10.1909 3.20147C10.4232 2.57907 10.4067 1.89111 10.145 1.2805C10.145 1.2805 9.54375 1.10216 8.1527 2.03462C6.98483 1.7181 5.75377 1.7181 4.5859 2.03462C3.19485 1.10216 2.59359 1.2805 2.59359 1.2805C2.33188 1.89111 2.31545 2.57907 2.54773 3.20147C2.05354 3.72054 1.77961 4.41085 1.78342 5.12755C1.78342 7.88927 3.46491 8.49562 5.06487 8.69434C4.89723 8.86757 4.76794 9.07416 4.68542 9.30066C4.6029 9.52716 4.56899 9.76849 4.5859 10.009V11.9809M4.5859 10.4523C2.03819 11.2166 2.03819 9.17841 1.0191 8.92364L4.5859 10.4523Z" stroke="#6F7173" stroke-width="1.0253" stroke-linecap="round" stroke-linejoin="round"/>
</g>
<defs>
<clipPath id="clip0_172:57">
<rect width="12.229" height="12.229" fill="white" transform="translate(0 0.770996)"/>
</clipPath>
</defs>
</svg>
