<svg width="13" height="14" viewBox="0 0 13 14" fill="none" xmlns="http://www.w3.org/2000/svg">
<path d="M8.15268 4.85394C8.96352 4.85394 9.74114 5.17605 10.3145 5.74939C10.8878 6.32274 11.2099 7.10036 11.2099 7.9112V11.478H9.17177V7.9112C9.17177 7.64092 9.0644 7.38171 8.87329 7.1906C8.68217 6.99948 8.42296 6.89211 8.15268 6.89211C7.88241 6.89211 7.6232 6.99948 7.43208 7.1906C7.24097 7.38171 7.1336 7.64092 7.1336 7.9112V11.478H5.09543V7.9112C5.09543 7.10036 5.41753 6.32274 5.99088 5.74939C6.56422 5.17605 7.34185 4.85394 8.15268 4.85394V4.85394Z" stroke="#6F7173" stroke-width="1.0253" stroke-linecap="round" stroke-linejoin="round"/>
<path d="M3.05728 5.36353H1.0191V11.478H3.05728V5.36353Z" stroke="#6F7173" stroke-width="1.0253" stroke-linecap="round" stroke-linejoin="round"/>
<path d="M2.03819 3.83486C2.60101 3.83486 3.05728 3.3786 3.05728 2.81578C3.05728 2.25295 2.60101 1.79669 2.03819 1.79669C1.47536 1.79669 1.0191 2.25295 1.0191 2.81578C1.0191 3.3786 1.47536 3.83486 2.03819 3.83486Z" stroke="#6F7173" stroke-width="1.0253" stroke-linecap="round" stroke-linejoin="round"/>
</svg>
